<svg width="36" height="36" viewBox="0 0 36 36" fill="none" xmlns="http://www.w3.org/2000/svg">
<path d="M17.9998 35.9997C27.9409 35.9997 35.9997 27.9409 35.9997 17.9998C35.9997 8.0588 27.9409 0 17.9998 0C8.0588 0 0 8.0588 0 17.9998C0 27.9409 8.0588 35.9997 17.9998 35.9997Z" fill="#55ACEE"/>
<path d="M29.0253 12.9359C28.2539 13.278 27.4242 13.5093 26.554 13.6126C27.4425 13.0803 28.1243 12.238 28.4461 11.2328C27.6148 11.7259 26.6936 12.0837 25.714 12.2766C24.9291 11.4407 23.8109 10.9183 22.5727 10.9183C20.197 10.9183 18.2703 12.8451 18.2703 15.2208C18.2703 15.558 18.3084 15.8863 18.3822 16.2014C14.8065 16.022 11.6361 14.3092 9.51387 11.7054C9.14359 12.3407 8.93118 13.0803 8.93118 13.8687C8.93118 15.361 9.69131 16.6785 10.8451 17.4498C10.1402 17.4277 9.47633 17.2342 8.89653 16.9111C8.89621 16.9294 8.89621 16.9477 8.89621 16.9657C8.89621 19.0503 10.3799 20.7891 12.3477 21.1841C11.9871 21.2829 11.6062 21.3352 11.2145 21.3352C10.9366 21.3352 10.6674 21.3086 10.4049 21.2585C10.9523 22.9674 12.5409 24.2114 14.4241 24.2464C12.9513 25.4005 11.0964 26.0882 9.08006 26.0882C8.73353 26.0882 8.39021 26.0679 8.05426 26.0278C9.95731 27.249 12.2194 27.961 14.649 27.961C22.5628 27.961 26.8906 21.4051 26.8906 15.7191C26.8906 15.5327 26.8864 15.3469 26.8781 15.1627C27.7194 14.5563 28.4487 13.7987 29.0253 12.9359Z" fill="#F1F2F2"/>
</svg>
